<svg xmlns="http://www.w3.org/2000/svg" xmlns:xlink="http://www.w3.org/1999/xlink" width="184" zoomAndPan="magnify" viewBox="0 0 138 131.999998" height="176" preserveAspectRatio="xMidYMid meet" version="1.0"><path fill="#000000" d="M 60.085938 12.597656 C 57.347656 15.335938 58.34375 17.613281 62.273438 17.613281 C 66.671875 17.613281 69.796875 14.734375 68.300781 12.058594 C 67.289062 10.25 62.089844 10.589844 60.085938 12.597656 M 97.769531 18.488281 C 95.953125 20.421875 95.9375 22.480469 97.71875 25.363281 C 101.375 31.28125 109.988281 30.828125 109.816406 24.726562 C 109.644531 18.679688 101.535156 14.480469 97.769531 18.488281 M 70.746094 18.859375 C 60.238281 21.625 59.757812 28.582031 69.863281 31.652344 C 77.550781 33.988281 85.550781 32.324219 87.363281 28.003906 C 88.679688 24.875 87.285156 22.441406 82.878906 20.191406 C 80.082031 18.765625 73.753906 18.070312 70.746094 18.859375 M 48.054688 22.546875 C 44.183594 24.347656 40.84375 27.511719 40.230469 29.957031 C 39.746094 31.898438 40.820312 34.234375 42.199219 34.234375 C 43.792969 34.234375 43.316406 35.191406 41.066406 36.523438 C 39.90625 37.207031 37.851562 38.769531 36.496094 39.992188 L 34.03125 42.222656 L 32.902344 40.496094 C 31.984375 39.09375 31.4375 38.851562 30 39.210938 C 26.695312 40.027344 22.617188 45.257812 21.160156 50.539062 C 19.800781 55.460938 23.792969 57.859375 27.773438 54.507812 C 28.859375 53.59375 29.863281 52.847656 30.007812 52.847656 C 30.148438 52.847656 30.316406 54.675781 30.378906 56.90625 C 30.605469 65.144531 34.164062 71.230469 40.675781 74.53125 C 50.6875 79.609375 63.269531 77.035156 73.523438 67.816406 C 85.363281 57.171875 84.402344 42.335938 71.398438 34.890625 C 67.636719 32.738281 60.664062 30.941406 56.003906 30.921875 C 54.472656 30.914062 53.046875 30.632812 52.839844 30.296875 C 52.632812 29.960938 53.472656 28.839844 54.703125 27.804688 C 57.707031 25.28125 58.804688 23.15625 57.753906 21.890625 C 56.550781 20.4375 51.90625 20.75 48.054688 22.546875 M 32.484375 27.105469 C 27.929688 30.179688 28.527344 35.101562 33.253906 33.453125 C 37.039062 32.132812 39.96875 26.953125 37.472656 25.996094 C 35.726562 25.324219 34.835938 25.523438 32.484375 27.105469 M 89.042969 34.644531 C 86.109375 37.113281 85.03125 39.597656 85.03125 43.871094 C 85.03125 49.214844 87.953125 54.199219 92.472656 56.5625 C 95.121094 57.945312 100.878906 57.757812 103.433594 56.199219 C 109.523438 52.484375 110.347656 43.242188 105.105469 37.4375 C 101.886719 33.867188 99.75 32.902344 95.082031 32.902344 C 91.769531 32.902344 90.769531 33.191406 89.042969 34.644531 M 14.527344 53.515625 C 12.988281 54.414062 11.726562 57.851562 12.214844 59.804688 C 12.789062 62.097656 15.609375 62.773438 17.34375 61.039062 C 18.988281 59.390625 19.71875 55.203125 18.597656 53.847656 C 17.65625 52.714844 16.113281 52.589844 14.527344 53.515625 M 20.402344 63.984375 C 15.292969 69.628906 18.804688 82.097656 25.5 82.097656 C 28.445312 82.097656 30.3125 80.378906 30.925781 77.117188 C 31.785156 72.535156 30.152344 67.015625 27.097656 64.167969 C 25.3125 62.503906 21.828125 62.40625 20.402344 63.984375 M 82.453125 64.960938 C 78.140625 67.050781 71.785156 73.242188 69.984375 77.109375 C 67.117188 83.261719 68.425781 89.332031 73.136719 91.769531 C 76.480469 93.5 82.382812 93.210938 86.683594 91.105469 C 91.015625 88.984375 95.777344 84.3125 97.738281 80.265625 C 99.546875 76.523438 99.652344 71.136719 97.976562 68.296875 C 95.242188 63.664062 88.230469 62.160156 82.453125 64.960938 M 112.375 67.847656 C 101.9375 73.132812 101.105469 86.769531 111.15625 87.902344 C 115.355469 88.375 118.5 87.101562 122.160156 83.441406 C 126.171875 79.425781 127.546875 75.375 126.144531 71.691406 C 124.136719 66.410156 118.386719 64.804688 112.375 67.847656 M 39.277344 80.832031 C 30.269531 85.421875 33.023438 95.910156 44.003906 98.820312 C 51.898438 100.910156 61.785156 95.199219 61.773438 88.554688 C 61.769531 86.113281 59.34375 82.902344 56.320312 81.339844 C 51.992188 79.097656 43.199219 78.835938 39.277344 80.832031 M 15.613281 84.351562 C 11.859375 88.105469 14.972656 97.386719 19.988281 97.386719 C 25.121094 97.386719 26.136719 88.761719 21.484375 84.667969 C 19.171875 82.632812 17.421875 82.539062 15.613281 84.351562 M 59.300781 101.332031 C 55.40625 102.300781 51.585938 105.519531 50.851562 108.445312 C 50.191406 111.078125 52.175781 114.332031 55.300781 115.742188 C 63.601562 119.488281 74.792969 112.359375 72.007812 105.097656 C 70.941406 102.3125 63.824219 100.203125 59.300781 101.332031 " fill-opacity="1" fill-rule="evenodd"/></svg>